<?xml version="1.0" encoding="UTF-8"?>
<svg version="1.1" xmlns="http://www.w3.org/2000/svg" width="128" height="128">
<path d="M0 0 C42.24 0 84.48 0 128 0 C128 42.24 128 84.48 128 128 C85.76 128 43.52 128 0 128 C0 85.76 0 43.52 0 0 Z " fill="#FCFCFC" transform="translate(0,0)"/>
<path d="M0 0 C1.29474243 -0.00637985 2.58948486 -0.0127597 3.92346191 -0.01933289 C5.34285444 -0.02086133 6.76224746 -0.02197541 8.18164062 -0.02270508 C9.63130731 -0.02591692 11.08097366 -0.02928093 12.53063965 -0.03279114 C15.57040153 -0.038783 18.61013497 -0.04063093 21.64990234 -0.04003906 C25.55081289 -0.03993733 29.45154189 -0.05360107 33.35240936 -0.07081127 C36.3463424 -0.08191152 39.34023123 -0.0839589 42.33418274 -0.08342934 C43.77273689 -0.084612 45.21129209 -0.08904973 46.64982605 -0.0967617 C48.65845409 -0.10652321 50.66713517 -0.10242929 52.67578125 -0.09765625 C53.82002563 -0.09908127 54.96427002 -0.10050629 56.14318848 -0.10197449 C58.83789062 0.14526367 58.83789062 0.14526367 60.83789062 2.14526367 C60.46289063 5.77026367 60.46289063 5.77026367 59.83789062 9.14526367 C59.03831436 9.15557114 58.2387381 9.1658786 57.41493225 9.17649841 C49.89521767 9.27430449 42.37558869 9.37679432 34.85601139 9.48460293 C30.98973053 9.53986723 27.12344215 9.59329268 23.25708008 9.64257812 C19.52878976 9.69017017 15.8005941 9.74251082 12.07241631 9.79820442 C10.6470213 9.81865145 9.2216003 9.83736058 7.79615974 9.85433769 C5.80618521 9.87832963 3.81629408 9.90896503 1.82641602 9.93994141 C0.12431725 9.96325783 0.12431725 9.96325783 -1.61216736 9.98704529 C-4.09626775 9.85876894 -4.09626775 9.85876894 -5.16210938 11.14526367 C-5.2614147 13.13413861 -5.29010399 15.12656784 -5.29150391 17.11791992 C-5.29465607 18.39594482 -5.29780823 19.67396973 -5.30105591 20.99072266 C-5.29926613 22.39640334 -5.29721518 23.80208372 -5.29492188 25.20776367 C-5.29559496 26.6388348 -5.29656502 28.06990582 -5.29782104 29.50097656 C-5.29929781 32.50383592 -5.29714414 35.50666557 -5.29248047 38.50952148 C-5.28678318 42.36678938 -5.2900623 46.22398771 -5.29605293 50.08125305 C-5.29965911 53.03739958 -5.2985197 55.9935295 -5.29592514 58.94967651 C-5.29525603 60.37230436 -5.29608375 61.7949337 -5.29840469 63.21755981 C-5.30093211 65.20257541 -5.2963998 67.18759626 -5.29150391 69.17260742 C-5.29070831 70.30432373 -5.28991272 71.43604004 -5.28909302 72.60205078 C-5.4504492 75.08057878 -5.4504492 75.08057878 -4.16210938 76.14526367 C-2.20930753 76.24977136 -0.25270393 76.28381742 1.70288086 76.29052734 C2.95765732 76.2969072 4.21243378 76.30328705 5.50523376 76.30986023 C6.88565025 76.31138879 8.26606724 76.31250281 9.64648438 76.31323242 C11.05273981 76.31644335 12.45899491 76.31980729 13.86524963 76.32331848 C16.8168312 76.32931599 19.76838347 76.33115775 22.7199707 76.33056641 C26.50769108 76.33046476 30.2952241 76.34411652 34.08290005 76.36133862 C36.98847827 76.3724411 39.89401096 76.37448616 42.79960823 76.37395668 C44.19629627 76.37513947 45.59298538 76.37957788 46.98965263 76.38728905 C48.94091264 76.39705292 50.89222726 76.39295601 52.84350586 76.38818359 C53.95523666 76.38960861 55.06696747 76.39103363 56.21238708 76.39250183 C58.9964314 76.41185545 58.9964314 76.41185545 60.83789062 74.14526367 C61.12955145 72.08446223 61.12955145 72.08446223 61.06494141 69.69555664 C61.06479034 68.77475311 61.06463928 67.85394958 61.06448364 66.90524292 C61.05416107 65.90937164 61.0438385 64.91350037 61.03320312 63.88745117 C61.02895828 62.36016891 61.02895828 62.36016891 61.02462769 60.80203247 C61.01340833 57.54132467 60.98830058 54.28088883 60.96289062 51.02026367 C60.95286309 48.81323638 60.94373685 46.6062048 60.93554688 44.39916992 C60.9134633 38.98110795 60.87996857 33.56320524 60.83789062 28.14526367 C58.30858779 26.88061225 56.53261801 27.00699297 53.70141602 26.98754883 C52.09448631 26.97215561 52.09448631 26.97215561 50.45509338 26.95645142 C49.29364304 26.94915009 48.13219269 26.94184875 46.93554688 26.93432617 C44.49478488 26.90626419 42.05402976 26.87759977 39.61328125 26.84838867 C35.75073387 26.80705432 31.88831559 26.7701815 28.02563477 26.74389648 C24.30783374 26.71638006 20.59062268 26.67051326 16.87304688 26.62182617 C15.71362076 26.6185733 14.55419464 26.61532043 13.3596344 26.61196899 C12.28519577 26.59540253 11.21075714 26.57883606 10.10375977 26.56176758 C9.15714981 26.55368073 8.21053986 26.54559387 7.23524475 26.53726196 C4.43026743 26.07861203 3.48910871 25.42854266 1.83789062 23.14526367 C2.10825209 20.17128751 2.69235088 19.29080341 4.83789062 17.14526367 C7.11257935 16.87110901 7.11257935 16.87110901 9.98681641 16.83886719 C11.06198517 16.82287979 12.13715393 16.8068924 13.24490356 16.79042053 C14.41254242 16.78505783 15.58018127 16.77969513 16.78320312 16.77416992 C17.98218231 16.76514145 19.1811615 16.75611298 20.41647339 16.74681091 C22.96024061 16.7322761 25.50404549 16.7234137 28.04785156 16.71972656 C31.92643179 16.70787508 35.80339859 16.65875509 39.68164062 16.6081543 C42.15298703 16.59868527 44.62434321 16.59145253 47.09570312 16.58666992 C48.25119659 16.5671376 49.40669006 16.54760529 50.59719849 16.52748108 C57.53229328 16.56600619 62.58940629 17.35338089 67.83789062 22.14526367 C69.99775216 25.38505597 70.09591042 26.31154442 70.12841797 30.05639648 C70.14117767 31.0546344 70.15393738 32.05287231 70.16708374 33.08135986 C70.16930939 34.15947937 70.17153503 35.23759888 70.17382812 36.34838867 C70.18381332 38.01511627 70.18381332 38.01511627 70.19400024 39.71551514 C70.20413315 42.06919702 70.20881707 44.42290766 70.20849609 46.77661133 C70.21285682 50.36742996 70.24913709 53.95700735 70.28710938 57.54760742 C70.29297994 59.83536364 70.29694773 62.12312569 70.29882812 64.41088867 C70.31319916 65.48091125 70.32757019 66.55093384 70.34237671 67.65338135 C70.30366917 74.0121871 69.75903359 78.04062338 65.83789062 83.14526367 C62.37432693 85.48696725 59.23774217 85.40972855 55.12915039 85.43579102 C54.13082687 85.44586685 54.13082687 85.44586685 53.11233521 85.45614624 C50.91791263 85.47510385 48.72379618 85.47904905 46.52929688 85.48120117 C44.99999364 85.48763002 43.47069165 85.49435845 41.94139099 85.50137329 C38.73783517 85.51333996 35.53438714 85.51705468 32.33081055 85.51586914 C28.23050408 85.51566583 24.1308898 85.54298209 20.03074741 85.57741356 C16.87282652 85.59967454 13.71507254 85.60370696 10.55708122 85.60264969 C9.04562936 85.60500632 7.53417295 85.61383346 6.02279854 85.62931442 C3.90671696 85.64896236 1.79213225 85.64314336 -0.32397461 85.63110352 C-1.52658432 85.63395355 -2.72919403 85.63680359 -3.96824646 85.63973999 C-8.81251425 84.88974672 -11.03932124 82.61653343 -13.94638062 78.8072052 C-15.43188448 75.55456812 -15.56906634 73.12701221 -15.61376953 69.55419922 C-15.63613678 68.23900803 -15.65850403 66.92381683 -15.68154907 65.56877136 C-15.68945584 64.13984862 -15.69596202 62.71091754 -15.70117188 61.28198242 C-15.71336349 59.80613466 -15.72584985 58.33028931 -15.73861694 56.85444641 C-15.76106041 53.76358501 -15.77064341 50.67296954 -15.77294922 47.58203125 C-15.77822648 43.63727919 -15.8295301 39.69459552 -15.89246559 35.75039959 C-15.93350096 32.70211389 -15.94259266 29.65432048 -15.94306564 26.60578346 C-15.94842315 25.15256821 -15.96517138 23.69934547 -15.99391556 22.24640465 C-16.22493867 9.5054419 -16.22493867 9.5054419 -11.73779297 4.25390625 C-7.78521064 0.46839011 -5.46354045 0.01820058 0 0 Z " fill="#0D0D0D" transform="translate(36.162109375,20.854736328125)"/>
<path d="M0 0 C4.55555556 0.55555556 4.55555556 0.55555556 6 2 C6.125 4.5 6.125 4.5 6 7 C5 8 5 8 2 8.125 C-1 8 -1 8 -2 7 C-2.1875 4.5625 -2.1875 4.5625 -2 2 C-1.34 1.34 -0.68 0.68 0 0 Z " fill="#141414" transform="translate(83,68)"/>
</svg>
